<svg xmlns="http://www.w3.org/2000/svg" width="460.9" height="359" viewBox="0 0 460.9 359"><path fill="#AF5B5B" d="M341.8 147.5c-7.7 11.2-15.3 20.9-22.8 29.1-7.5 8.2-15.6 15.4-24.3 21.7-8.7 6.2-18.4 11.7-29.1 16.4-10.7 4.7-23.4 9.3-38.1 13.8l-.7-.7v-.1l.7-1.1c.2-.2.3-.5.5-.9l.1-.2c.3-.5.7-1 1.1-1.7l1.6-2.4c.7-1.1 1.6-2.5 2.6-4l1.5-2.3c2.2-3.5 5-7.8 8.7-13.4 8.5-13.1-2.2-31.3 8.7-48.1-3 4.7-48.6 74.7-52.5 80.7-15.9 3.2-32 5.9-48.2 8-16.2 2.1-31.7 4.4-46.5 6.7-14.8 2.4-28.6 5-41.5 8-12.8 3-24 6.9-33.4 11.8-9.5 4.9-16.9 11-22.2 18.3-5.4 7.3-8 16.5-8 27.5 0 7 1.7 13.2 5 18.7 3.4 5.5 7.8 10.1 13.3 14C23.8 351.1 30 354 37 356c7 2 14.1 3 21.3 3 17.9 0 34.7-3.7 50.4-11.2 15.7-7.5 30.3-17.2 43.9-29.1 13.6-12 26.1-25.3 37.5-40.2 11.5-14.8 22-29.6 31.8-44.3 16.2-4.5 30.3-9.3 42.2-14.4 12-5.1 22.6-11 31.9-17.6 9.3-6.6 17.9-14.2 25.6-22.8 7.7-8.6 15.4-18.6 23.2-30.1l-3-1.8zM173 274c-9.5 13.3-20.2 26-32.1 37.9-12 12-25 22-39 30.3-14.1 8.2-28.8 12.3-44.3 12.3-11.2 0-20.6-3.1-28.2-9.2-7.6-6.1-11.4-16.1-11.4-30.1 0-10.5 2.4-19.2 7.1-26.3 4.7-7.1 11.3-13 19.6-17.6 8.3-4.6 18.2-8.3 29.5-11.2 11.3-2.9 23.6-5.4 36.8-7.5 13.2-2.1 27.1-4.2 41.7-6.2 14.6-2 29.2-4.5 43.9-7.5-6.3 10.1-14.2 21.8-23.6 35.1z"/><g fill="#AF5B5B"><path d="M455.7.9C452.2.3 448 0 443 0c-3.7 0-7.9.3-12.5.7-4.6.5-9.8.7-15.5.7-8 0-20.1-.2-36.4-.7-16.4-.4-35.5-.7-57.4-.7-32.9 0-62.2 2.9-88 8.6-25.7 5.7-47.5 13.4-65.2 23.2-17.7 9.7-31.2 20.9-40.5 33.4s-14 25.7-14 39.4c0 13.4 4.9 23.9 14.6 31.4s22.9 11.2 39.6 11.2c12.5 0 24.5-2.1 36.1-6.3 11.6-4.2 21.7-9.8 30.4-16.6 8.7-6.8 15.7-14.6 20.9-23.3 5.2-8.7 7.8-17.6 7.8-26.5 0-7.5-1.4-14.7-4.1-21.7l-3.7.7c.7 2.7 1.5 5.8 2.2 9.2.7 3.4 1.1 7.2 1.1 11.4 0 10-2.8 19.2-8.4 27.6-5.6 8.5-12.8 15.8-21.5 21.9-8.7 6.1-18.4 10.8-29.1 14.2-10.7 3.4-21.2 5-31.4 5-15.7 0-28.1-3.5-37.2-10.6-9.1-7.1-13.4-16.6-12.9-28.6.5-12.4 4.7-23.8 12.7-34.2 8-10.3 19.1-19.4 33.4-27.1 14.3-7.7 31.6-13.7 51.7-17.9 20.2-4.2 42.6-6.3 67.2-6.3 12.2 0 23.1.1 32.7.2 9.6.1 18.3.3 26.1.6 7.8.3 15.1.4 21.9.6 6.7.1 13.3.2 19.8.2v.8c-13.7 3.5-26.1 9.1-37.2 17-10.9 7.5-20.9 16.5-30 26.6-9.1 10.1-17.4 20.9-25 32.3-7.6 11.5-15 22.8-22.2 34h-16.1l-.7 4.5h14.6c0-.1 0 0-.1.2-19.8 29.3-3.6 40.1-12.1 53.3 2.6-4 34.7-53.9 34.7-53.9 2-.2 4.6-.5 7.8-.7 3.2-.2 6.7-.6 10.5-.9 3.7-.4 7.5-.7 11.4-1.1 3.9-.4 7.4-.8 10.6-1.3-3.5 6.5-7 12.9-10.5 19.2-3.5 6.3-6.5 13-9 20l2.2 1.1c7.2-11.5 15.3-22.2 24.3-32.3 9-10.1 18.5-19.5 28.8-28.2-3-1-6.1-1.5-9.3-1.5-5.2 0-9.4 1.5-12.5 4.5-3.1 3-5.8 6-8 9-1 1.5-3.4 2.6-7.1 3.4-3.7.7-7.8 1.4-12.3 1.9-4.5.5-9 .9-13.6 1.1-4.6.3-8.4.6-11.4 1.1 6.7-9.2 12.9-19.1 18.5-29.7 5.6-10.6 12-20.9 19.1-31 7.1-10.1 15.5-19.4 25.2-28 9.7-8.6 21.8-15.5 36.2-20.7 16.2 0 29-.1 38.5-.2s16.6-.6 21.5-1.3c4.9-.7 7.9-2 9.2-3.7 1.2-1.7 1.9-4.2 1.9-7.5-.4-4-2.1-6.1-5.6-6.8zM250 195.3c-.2.3-.3.4 0 0z"/></g></svg>