<?xml version="1.0" encoding="utf-8"?>
<!-- Generator: Adobe Illustrator 19.2.0, SVG Export Plug-In . SVG Version: 6.00 Build 0)  -->
<svg version="1.1" id="Layer_1" xmlns="http://www.w3.org/2000/svg" xmlns:xlink="http://www.w3.org/1999/xlink" x="0px" y="0px"
	 width="75.4px" height="75.4px" viewBox="0 0 75.4 75.4" style="enable-background:new 0 0 75.4 75.4;" xml:space="preserve">
<style type="text/css">
	.st0{fill:#FFFFFF;}
</style>
<path class="st0" d="M12.9,29.1h10.6v34.2H12.9V29.1z M18.2,12.1c3.4,0,6.2,2.8,6.2,6.2s-2.8,6.2-6.2,6.2S12,21.7,12,18.3
	C12.1,14.9,14.8,12.1,18.2,12.1"/>
<path class="st0" d="M30.2,29.1h10.2v4.7h0.1c1.4-2.7,4.9-5.5,10.1-5.5c10.7,0,12.7,7.1,12.7,16.3v18.7H52.7V46.6
	c0-4-0.1-9.1-5.5-9.1c-5.5,0-6.4,4.3-6.4,8.8v16.9H30.2V29.1z"/>
</svg>
