<?xml version="1.0" encoding="utf-8"?>
<!-- Generator: Adobe Illustrator 19.2.0, SVG Export Plug-In . SVG Version: 6.00 Build 0)  -->
<svg version="1.1" id="Layer_1" xmlns="http://www.w3.org/2000/svg" xmlns:xlink="http://www.w3.org/1999/xlink" x="0px" y="0px"
	 width="75.4px" height="75.4px" viewBox="0 0 75.4 75.4" style="enable-background:new 0 0 75.4 75.4;" xml:space="preserve">
<style type="text/css">
	.st0{fill:#FFFFFF;}
</style>
<g id="XMLID_256_">
	<g id="XMLID_257_">
		<path id="XMLID_259_" class="st0" d="M50.7,63.7c-5,2.2-9.3,3-15.2,3c-13.8,0-25.9-9.9-25.9-26.2c0-17,12.3-31.7,31.1-31.7
			c14.6,0,25.1,10.1,25.1,24c0,12.1-6.8,19.8-15.8,19.8c-3.9,0-6.7-2-7.1-6.4h-0.2c-2.6,4.2-6.3,6.4-10.7,6.4c-5.4,0-9.3-4-9.3-10.8
			c0-10.1,7.5-19.4,19.5-19.4c3.7,0,7.8,0.9,9.9,2.1l-2.5,15.4c-0.8,4.9-0.2,7.1,2.1,7.2c3.6,0.1,8.1-4.5,8.1-14.1
			c0-10.8-7-19.2-19.9-19.2c-12.7,0-23.9,10-23.9,25.9c0,13.9,8.9,21.8,21.3,21.8c4.2,0,8.7-0.9,12.1-2.7L50.7,63.7z M43.3,29.4
			c-0.7-0.2-1.5-0.3-2.6-0.3c-5.5,0-9.8,5.4-9.8,11.8c0,3.2,1.4,5.2,4.2,5.2c3.1,0,6.3-3.9,7.1-8.7L43.3,29.4z"/>
	</g>
</g>
</svg>
