<?xml version="1.0" standalone="no"?>
<!DOCTYPE svg PUBLIC "-//W3C//DTD SVG 20010904//EN"
 "http://www.w3.org/TR/2001/REC-SVG-20010904/DTD/svg10.dtd">
<svg version="1.0" xmlns="http://www.w3.org/2000/svg"
 width="16.000000pt" height="16.000000pt" viewBox="0 0 16.000000 16.000000"
 preserveAspectRatio="xMidYMid meet">
<metadata>
Created by potrace 1.11, written by Peter Selinger 2001-2013
</metadata>
<g transform="translate(0.000000,16.000000) scale(0.001802,-0.001802)"
fill="#000000" stroke="none">
<path d="M4329 8876 c-2 -3 -24 -7 -49 -11 -25 -3 -53 -8 -62 -11 -9 -3 -25
-7 -36 -9 -40 -7 -179 -67 -247 -106 -38 -22 -77 -44 -85 -49 -89 -51 -847
-485 -948 -543 -73 -43 -135 -77 -139 -77 -4 0 -14 -6 -22 -14 -9 -8 -38 -26
-66 -41 -27 -14 -63 -34 -80 -44 -32 -20 -50 -30 -195 -112 -52 -29 -96 -57
-98 -61 -2 -5 -8 -8 -12 -8 -5 0 -48 -22 -96 -50 -48 -27 -91 -50 -95 -50 -5
0 -9 -5 -9 -11 0 -5 -4 -7 -10 -4 -5 3 -10 1 -10 -4 0 -6 -4 -11 -9 -11 -12 0
-155 -82 -163 -95 -5 -6 -8 -6 -8 0 0 7 -3 7 -8 0 -4 -5 -23 -18 -42 -29 -47
-25 -88 -48 -195 -111 -49 -29 -106 -62 -125 -72 -130 -73 -226 -128 -230
-133 -3 -3 -18 -12 -35 -20 -16 -8 -48 -26 -70 -39 -22 -14 -42 -26 -45 -26
-8 -1 -244 -142 -269 -162 -65 -50 -158 -144 -206 -209 -83 -110 -164 -284
-180 -386 -3 -18 -9 -53 -14 -78 -11 -48 -10 -3695 1 -3740 3 -14 10 -43 16
-65 6 -22 13 -51 15 -65 10 -56 83 -201 145 -290 88 -125 223 -238 402 -337
46 -25 245 -141 300 -173 103 -61 242 -140 247 -140 3 0 14 -6 22 -14 9 -7 43
-28 76 -46 107 -58 150 -84 153 -92 2 -4 12 -8 22 -8 10 0 20 -3 22 -8 4 -9
217 -132 229 -132 5 0 9 -4 9 -9 0 -5 8 -11 18 -14 9 -4 37 -18 62 -33 25 -15
65 -38 90 -52 25 -14 77 -44 115 -67 39 -22 77 -44 85 -48 8 -4 44 -25 80 -47
36 -22 81 -48 100 -58 19 -9 37 -20 38 -24 2 -5 10 -8 18 -8 8 0 14 -5 14 -11
0 -5 4 -8 9 -4 5 3 12 1 15 -4 7 -11 108 -69 117 -67 4 0 15 -6 25 -15 11 -9
26 -19 34 -23 8 -3 29 -15 45 -25 17 -11 53 -32 80 -46 28 -15 57 -33 66 -41
8 -8 18 -14 22 -14 5 0 278 -155 317 -181 8 -5 26 -15 40 -22 14 -7 43 -24 65
-38 22 -14 47 -29 55 -33 8 -4 24 -12 35 -19 200 -120 399 -225 440 -232 6 0
17 -5 26 -9 9 -4 56 -15 105 -26 86 -17 107 -18 362 -9 12 1 22 6 22 12 0 6 3
8 6 4 19 -18 237 73 384 162 36 22 92 54 125 72 33 17 62 35 65 38 3 4 16 12
30 18 14 7 48 26 75 43 28 16 57 33 65 36 8 4 23 14 34 23 10 9 19 14 20 12 0
-3 12 3 26 11 57 37 324 188 332 188 4 0 8 5 8 10 0 6 4 10 9 10 5 0 49 23 98
51 48 28 104 61 123 71 47 27 201 116 220 127 81 49 307 177 317 179 7 2 13 7
13 11 0 4 16 13 35 21 19 8 35 17 35 20 0 4 23 17 50 30 28 13 50 27 50 31 0
4 12 12 28 18 15 6 50 24 77 41 28 17 59 35 70 40 11 6 29 16 40 22 47 31 122
74 145 86 14 6 32 16 40 21 21 13 118 70 158 93 80 45 102 58 175 102 43 25
80 46 82 46 2 0 50 27 107 61 57 34 128 75 158 91 30 17 74 44 98 59 24 16 47
29 53 29 5 0 9 4 9 8 0 4 12 15 28 24 61 37 192 184 241 270 12 21 29 53 39
70 20 35 42 97 41 112 0 5 3 12 8 15 12 8 39 118 50 201 6 54 11 3671 5 3684
-3 5 -7 27 -9 50 -10 109 -70 266 -150 387 -56 86 -215 249 -242 249 -6 0 -11
4 -11 8 0 5 -19 19 -42 32 -24 13 -45 26 -48 29 -3 4 -16 12 -30 19 -14 7 -43
23 -65 37 -22 13 -52 29 -67 36 -16 6 -28 16 -28 22 0 6 -3 7 -6 4 -4 -4 -19
1 -33 11 -46 30 -66 42 -81 49 -8 4 -17 9 -20 12 -3 4 -16 12 -30 18 -14 7
-47 26 -75 42 -27 17 -59 35 -70 41 -11 5 -38 21 -60 34 -22 14 -51 31 -65 39
-63 34 -526 300 -535 307 -10 7 -67 39 -165 93 -30 16 -62 35 -70 41 -8 6 -24
16 -35 22 -52 27 -214 120 -245 139 -53 33 -271 158 -305 175 -16 8 -36 20
-43 27 -7 7 -20 13 -28 13 -8 0 -14 4 -14 9 0 5 -8 11 -17 14 -18 6 -31 13
-241 135 -68 40 -127 72 -132 72 -6 0 -10 4 -10 9 0 5 -8 11 -17 14 -18 6 -35
16 -175 98 -36 21 -71 39 -77 39 -6 0 -11 5 -11 10 0 6 -6 10 -14 10 -8 0 -16
3 -18 8 -1 4 -21 16 -43 27 -22 11 -42 22 -45 25 -16 16 -200 110 -200 102 0
-4 -4 -2 -8 3 -11 16 -145 58 -225 71 -42 7 -263 15 -268 10z"/>
</g>
</svg>
